<svg xmlns="http://www.w3.org/2000/svg" viewBox="0 0 256 256" width="256" height="256">
  <!-- Background Circle -->
  <circle cx="128" cy="128" r="120" fill="#2754BA" stroke="#123962" stroke-width="4"/>

  <!-- Blockchain Blocks -->
  <!-- Block 1 (Top) -->
  <rect x="88" y="60" width="80" height="40" rx="8" fill="#FFFFFF" opacity="0.9"/>
  <rect x="92" y="64" width="72" height="8" rx="2" fill="#2754BA"/>
  <rect x="92" y="76" width="56" height="4" rx="1" fill="#799EB2"/>
  <rect x="92" y="84" width="48" height="4" rx="1" fill="#799EB2"/>

  <!-- Connection Line 1 -->
  <line x1="128" y1="100" x2="128" y2="116" stroke="#FFFFFF" stroke-width="4" opacity="0.8"/>
  <circle cx="128" cy="108" r="6" fill="#FFFFFF"/>

  <!-- Block 2 (Middle) -->
  <rect x="88" y="116" width="80" height="40" rx="8" fill="#FFFFFF" opacity="0.9"/>
  <rect x="92" y="120" width="72" height="8" rx="2" fill="#2754BA"/>
  <rect x="92" y="132" width="64" height="4" rx="1" fill="#799EB2"/>
  <rect x="92" y="140" width="40" height="4" rx="1" fill="#799EB2"/>

  <!-- Connection Line 2 -->
  <line x1="128" y1="156" x2="128" y2="172" stroke="#FFFFFF" stroke-width="4" opacity="0.8"/>
  <circle cx="128" cy="164" r="6" fill="#FFFFFF"/>

  <!-- Block 3 (Bottom) -->
  <rect x="88" y="172" width="80" height="40" rx="8" fill="#FFFFFF" opacity="0.9"/>
  <rect x="92" y="176" width="72" height="8" rx="2" fill="#2754BA"/>
  <rect x="92" y="188" width="52" height="4" rx="1" fill="#799EB2"/>
  <rect x="92" y="196" width="60" height="4" rx="1" fill="#799EB2"/>

  <!-- Crypto/Hash symbols -->
  <text x="205" y="85" font-family="monospace" font-size="12" fill="#FFFFFF" opacity="0.6">#</text>
  <text x="45" y="140" font-family="monospace" font-size="12" fill="#FFFFFF" opacity="0.6">₿</text>
  <text x="200" y="190" font-family="monospace" font-size="12" fill="#FFFFFF" opacity="0.6">∑</text>

  <!-- Decorative Elements -->
  <circle cx="60" cy="80" r="3" fill="#FFFFFF" opacity="0.4"/>
  <circle cx="190" cy="120" r="4" fill="#FFFFFF" opacity="0.3"/>
  <circle cx="70" cy="180" r="2" fill="#FFFFFF" opacity="0.5"/>
  <circle cx="180" cy="70" r="2" fill="#FFFFFF" opacity="0.4"/>

  <!-- Clean design without initials -->
</svg>
